<mxfile host="Electron" modified="2023-07-26T06:19:15.246Z" agent="Mozilla/5.0 (Windows NT 10.0; Win64; x64) AppleWebKit/537.36 (KHTML, like Gecko) draw.io/21.6.1 Chrome/112.0.5615.204 Electron/24.6.1 Safari/537.36" etag="T2L3TGcdczlJoG1K0ZB3" version="21.6.1" type="device">
  <diagram id="C5RBs43oDa-KdzZeNtuy" name="Page-1">
    <mxGraphModel dx="1418" dy="828" grid="1" gridSize="10" guides="1" tooltips="1" connect="1" arrows="1" fold="1" page="1" pageScale="1" pageWidth="827" pageHeight="1169" math="0" shadow="0">
      <root>
        <mxCell id="WIyWlLk6GJQsqaUBKTNV-0" />
        <mxCell id="WIyWlLk6GJQsqaUBKTNV-1" parent="WIyWlLk6GJQsqaUBKTNV-0" />
        <mxCell id="slE-R18mj_RWnaZ9r4hl-0" value="获取EncryptKey" style="rounded=1;whiteSpace=wrap;html=1;" vertex="1" parent="WIyWlLk6GJQsqaUBKTNV-1">
          <mxGeometry x="120" y="80" width="120" height="60" as="geometry" />
        </mxCell>
        <mxCell id="slE-R18mj_RWnaZ9r4hl-1" value="获取EncryptValue" style="rounded=1;whiteSpace=wrap;html=1;" vertex="1" parent="WIyWlLk6GJQsqaUBKTNV-1">
          <mxGeometry x="310" y="360" width="120" height="60" as="geometry" />
        </mxCell>
        <mxCell id="slE-R18mj_RWnaZ9r4hl-2" value="BASE64解密" style="rounded=0;whiteSpace=wrap;html=1;" vertex="1" parent="WIyWlLk6GJQsqaUBKTNV-1">
          <mxGeometry x="120" y="180" width="120" height="60" as="geometry" />
        </mxCell>
        <mxCell id="slE-R18mj_RWnaZ9r4hl-3" value="去掉头五个字符后DPAPI解密得到key" style="rounded=0;whiteSpace=wrap;html=1;" vertex="1" parent="WIyWlLk6GJQsqaUBKTNV-1">
          <mxGeometry x="120" y="270" width="120" height="60" as="geometry" />
        </mxCell>
        <mxCell id="slE-R18mj_RWnaZ9r4hl-4" value="hex编码,key也进行hex编码" style="rounded=0;whiteSpace=wrap;html=1;" vertex="1" parent="WIyWlLk6GJQsqaUBKTNV-1">
          <mxGeometry x="120" y="360" width="120" height="60" as="geometry" />
        </mxCell>
        <mxCell id="slE-R18mj_RWnaZ9r4hl-5" value="HEX解码获取IV并对IV进行HEX编码" style="rounded=0;whiteSpace=wrap;html=1;" vertex="1" parent="WIyWlLk6GJQsqaUBKTNV-1">
          <mxGeometry x="120" y="460" width="120" height="60" as="geometry" />
        </mxCell>
        <mxCell id="slE-R18mj_RWnaZ9r4hl-6" value="截取末尾15（？我一共都不够）获取chiper" style="rounded=0;whiteSpace=wrap;html=1;" vertex="1" parent="WIyWlLk6GJQsqaUBKTNV-1">
          <mxGeometry x="310" y="450" width="120" height="60" as="geometry" />
        </mxCell>
        <mxCell id="slE-R18mj_RWnaZ9r4hl-8" value="开始解密" style="rounded=1;whiteSpace=wrap;html=1;" vertex="1" parent="WIyWlLk6GJQsqaUBKTNV-1">
          <mxGeometry x="220" y="570" width="120" height="60" as="geometry" />
        </mxCell>
        <mxCell id="slE-R18mj_RWnaZ9r4hl-9" value="IV做hex解码" style="rounded=0;whiteSpace=wrap;html=1;" vertex="1" parent="WIyWlLk6GJQsqaUBKTNV-1">
          <mxGeometry x="220" y="660" width="120" height="60" as="geometry" />
        </mxCell>
        <mxCell id="slE-R18mj_RWnaZ9r4hl-10" value="key做hex解码" style="rounded=0;whiteSpace=wrap;html=1;" vertex="1" parent="WIyWlLk6GJQsqaUBKTNV-1">
          <mxGeometry x="220" y="760" width="120" height="60" as="geometry" />
        </mxCell>
        <mxCell id="slE-R18mj_RWnaZ9r4hl-11" value="chiper做Hex解码（为什么？明明没编码，这个地方很有可能是做编码步骤）" style="rounded=0;whiteSpace=wrap;html=1;" vertex="1" parent="WIyWlLk6GJQsqaUBKTNV-1">
          <mxGeometry x="220" y="860" width="120" height="60" as="geometry" />
        </mxCell>
        <mxCell id="slE-R18mj_RWnaZ9r4hl-12" value="构造解码器并且解码" style="rounded=0;whiteSpace=wrap;html=1;" vertex="1" parent="WIyWlLk6GJQsqaUBKTNV-1">
          <mxGeometry x="220" y="970" width="120" height="60" as="geometry" />
        </mxCell>
      </root>
    </mxGraphModel>
  </diagram>
</mxfile>
